# xmcd CD database file
#
# Track frame offsets:
#	150
#	7048
#	32837
#	61092
#	74311
#	95843
#	114715
#	134280
#	153503
#	183402
#	196714
#	206063
#	222042
#	243989
#	278303
#
# Disc length: 4059 seconds
#
# Revision: 0
# Processed by: cddbd v1.5.2PL0 Copyright (c) Steve Scherf et al.
# Submitted via: CDex 1.51
#
DISCID=d20fd90f
DTITLE=Archie Lee Hooker and Shawn Gonzales - Far From Home
DYEAR=1998
DGENRE=Blues
TTITLE0=The Hypnotist (part 1)
TTITLE1=Church of the Blues
TTITLE2=I Can't Hold On
TTITLE3=Through Her Eyes
TTITLE4=Blues Outlaw
TTITLE5=The Serpent
TTITLE6=First Time I Lost You
TTITLE7=Devil in Disguise
TTITLE8=Feel Like Moanin'
TTITLE9=Dub Shack
TTITLE10=The Hypnotist (part 2)
TTITLE11=Mississippi Funk
TTITLE12=Fire of Kenya
TTITLE13=Knocking On My Door
TTITLE14=Bottom of the Skillet
EXTD=YEAR: 1998
EXTT0=
EXTT1=
EXTT2=
EXTT3=
EXTT4=
EXTT5=
EXTT6=
EXTT7=
EXTT8=
EXTT9=
EXTT10=
EXTT11=
EXTT12=
EXTT13=
EXTT14=
PLAYORDER=
